<mxfile host="app.diagrams.net" modified="2024-07-09T00:59:05.233Z" agent="Mozilla/5.0 (Windows NT 10.0; Win64; x64; rv:127.0) Gecko/20100101 Firefox/127.0" etag="4HnINTAZUD05_aaX9QNI" version="24.6.4" type="github">
  <diagram name="PÃ¡gina-1" id="aDHi9TXARx48Rw7sVExe">
    <mxGraphModel dx="1222" dy="654" grid="1" gridSize="11" guides="1" tooltips="1" connect="1" arrows="1" fold="1" page="1" pageScale="1" pageWidth="1920" pageHeight="1080" math="0" shadow="0">
      <root>
        <mxCell id="0" />
        <mxCell id="1" parent="0" />
        <mxCell id="URqqC22e3I-ldUmz-aZF-4" value="Point" style="swimlane;fontStyle=1;align=center;verticalAlign=top;childLayout=stackLayout;horizontal=1;startSize=26;horizontalStack=0;resizeParent=1;resizeParentMax=0;resizeLast=0;collapsible=1;marginBottom=0;whiteSpace=wrap;html=1;" vertex="1" parent="1">
          <mxGeometry x="121" y="80" width="280" height="210" as="geometry" />
        </mxCell>
        <mxCell id="URqqC22e3I-ldUmz-aZF-5" value="&lt;div&gt;+ n: int&lt;/div&gt;&lt;div&gt;+ point: List[int]&lt;br&gt;&lt;/div&gt;" style="text;strokeColor=none;fillColor=none;align=left;verticalAlign=top;spacingLeft=4;spacingRight=4;overflow=hidden;rotatable=0;points=[[0,0.5],[1,0.5]];portConstraint=eastwest;whiteSpace=wrap;html=1;" vertex="1" parent="URqqC22e3I-ldUmz-aZF-4">
          <mxGeometry y="26" width="280" height="44" as="geometry" />
        </mxCell>
        <mxCell id="URqqC22e3I-ldUmz-aZF-6" value="" style="line;strokeWidth=1;fillColor=none;align=left;verticalAlign=middle;spacingTop=-1;spacingLeft=3;spacingRight=3;rotatable=0;labelPosition=right;points=[];portConstraint=eastwest;strokeColor=inherit;" vertex="1" parent="URqqC22e3I-ldUmz-aZF-4">
          <mxGeometry y="70" width="280" height="8" as="geometry" />
        </mxCell>
        <mxCell id="URqqC22e3I-ldUmz-aZF-7" value="- __init__(n: int)&lt;br&gt;    + colorPoint(): List[str]&lt;br&gt;    + coordPoint(): List[List[int]]&lt;br&gt;    + returnPointX(point: List[int]): Dict[str, int]&lt;br&gt;    + returnPointY(point: List[int]): Dict[str, int]&lt;br&gt;    + getCoordPoint(): List[List[int]]&lt;br&gt;    + showPoint(point: List[List[int]], color: List[str])&lt;br&gt;    + identif(): str" style="text;strokeColor=none;fillColor=none;align=left;verticalAlign=top;spacingLeft=4;spacingRight=4;overflow=hidden;rotatable=0;points=[[0,0.5],[1,0.5]];portConstraint=eastwest;whiteSpace=wrap;html=1;" vertex="1" parent="URqqC22e3I-ldUmz-aZF-4">
          <mxGeometry y="78" width="280" height="132" as="geometry" />
        </mxCell>
        <mxCell id="URqqC22e3I-ldUmz-aZF-12" value="Line" style="swimlane;fontStyle=1;align=center;verticalAlign=top;childLayout=stackLayout;horizontal=1;startSize=26;horizontalStack=0;resizeParent=1;resizeParentMax=0;resizeLast=0;collapsible=1;marginBottom=0;whiteSpace=wrap;html=1;" vertex="1" parent="1">
          <mxGeometry x="506" y="80" width="320" height="242" as="geometry" />
        </mxCell>
        <mxCell id="URqqC22e3I-ldUmz-aZF-13" value="+ n: int&lt;br&gt;    + pointObj: Point&lt;br&gt;    + coord: List[List[int]]" style="text;strokeColor=none;fillColor=none;align=left;verticalAlign=top;spacingLeft=4;spacingRight=4;overflow=hidden;rotatable=0;points=[[0,0.5],[1,0.5]];portConstraint=eastwest;whiteSpace=wrap;html=1;" vertex="1" parent="URqqC22e3I-ldUmz-aZF-12">
          <mxGeometry y="26" width="320" height="62" as="geometry" />
        </mxCell>
        <mxCell id="URqqC22e3I-ldUmz-aZF-14" value="" style="line;strokeWidth=1;fillColor=none;align=left;verticalAlign=middle;spacingTop=-1;spacingLeft=3;spacingRight=3;rotatable=0;labelPosition=right;points=[];portConstraint=eastwest;strokeColor=inherit;" vertex="1" parent="URqqC22e3I-ldUmz-aZF-12">
          <mxGeometry y="88" width="320" height="8" as="geometry" />
        </mxCell>
        <mxCell id="URqqC22e3I-ldUmz-aZF-15" value="- __init__(n: int)&lt;br&gt;    + lenghtLine(): Union[float, str]&lt;br&gt;    + colorLine(): str&lt;br&gt;    + inclinacaoLine(): Union[float, str]&lt;br&gt;    + coefLinear(coefAng: float): Union[float, str]&lt;br&gt;    + interpolar(coefAng: float, coefLinear: float, x: int): float&lt;br&gt;    + showLine(lenght: float, color: str, coefAng: float, coefLinear: float, interpolacao: float)&lt;br&gt;    + identif(): str" style="text;strokeColor=none;fillColor=none;align=left;verticalAlign=top;spacingLeft=4;spacingRight=4;overflow=hidden;rotatable=0;points=[[0,0.5],[1,0.5]];portConstraint=eastwest;whiteSpace=wrap;html=1;" vertex="1" parent="URqqC22e3I-ldUmz-aZF-12">
          <mxGeometry y="96" width="320" height="146" as="geometry" />
        </mxCell>
        <mxCell id="URqqC22e3I-ldUmz-aZF-16" value="coorUnique" style="swimlane;fontStyle=1;align=center;verticalAlign=top;childLayout=stackLayout;horizontal=1;startSize=26;horizontalStack=0;resizeParent=1;resizeParentMax=0;resizeLast=0;collapsible=1;marginBottom=0;whiteSpace=wrap;html=1;" vertex="1" parent="1">
          <mxGeometry x="880" y="80" width="330" height="143" as="geometry" />
        </mxCell>
        <mxCell id="URqqC22e3I-ldUmz-aZF-17" value="+__x: int&lt;br&gt;    + __y: int" style="text;strokeColor=none;fillColor=none;align=left;verticalAlign=top;spacingLeft=4;spacingRight=4;overflow=hidden;rotatable=0;points=[[0,0.5],[1,0.5]];portConstraint=eastwest;whiteSpace=wrap;html=1;" vertex="1" parent="URqqC22e3I-ldUmz-aZF-16">
          <mxGeometry y="26" width="330" height="40" as="geometry" />
        </mxCell>
        <mxCell id="URqqC22e3I-ldUmz-aZF-18" value="" style="line;strokeWidth=1;fillColor=none;align=left;verticalAlign=middle;spacingTop=-1;spacingLeft=3;spacingRight=3;rotatable=0;labelPosition=right;points=[];portConstraint=eastwest;strokeColor=inherit;" vertex="1" parent="URqqC22e3I-ldUmz-aZF-16">
          <mxGeometry y="66" width="330" height="8" as="geometry" />
        </mxCell>
        <mxCell id="URqqC22e3I-ldUmz-aZF-19" value="- __init__(x: int, y: int)&lt;br&gt;    + coordenadaX(): int&lt;br&gt;    + coordenadaY(): int&lt;br&gt;    + identif(): str" style="text;strokeColor=none;fillColor=none;align=left;verticalAlign=top;spacingLeft=4;spacingRight=4;overflow=hidden;rotatable=0;points=[[0,0.5],[1,0.5]];portConstraint=eastwest;whiteSpace=wrap;html=1;" vertex="1" parent="URqqC22e3I-ldUmz-aZF-16">
          <mxGeometry y="74" width="330" height="69" as="geometry" />
        </mxCell>
        <mxCell id="URqqC22e3I-ldUmz-aZF-20" value="Circle" style="swimlane;fontStyle=1;align=center;verticalAlign=top;childLayout=stackLayout;horizontal=1;startSize=26;horizontalStack=0;resizeParent=1;resizeParentMax=0;resizeLast=0;collapsible=1;marginBottom=0;whiteSpace=wrap;html=1;" vertex="1" parent="1">
          <mxGeometry x="1254" y="80" width="330" height="242" as="geometry" />
        </mxCell>
        <mxCell id="URqqC22e3I-ldUmz-aZF-21" value="+ x: int&lt;br&gt;    + y: int&lt;br&gt;    + raio: int" style="text;strokeColor=none;fillColor=none;align=left;verticalAlign=top;spacingLeft=4;spacingRight=4;overflow=hidden;rotatable=0;points=[[0,0.5],[1,0.5]];portConstraint=eastwest;whiteSpace=wrap;html=1;" vertex="1" parent="URqqC22e3I-ldUmz-aZF-20">
          <mxGeometry y="26" width="330" height="62" as="geometry" />
        </mxCell>
        <mxCell id="URqqC22e3I-ldUmz-aZF-22" value="" style="line;strokeWidth=1;fillColor=none;align=left;verticalAlign=middle;spacingTop=-1;spacingLeft=3;spacingRight=3;rotatable=0;labelPosition=right;points=[];portConstraint=eastwest;strokeColor=inherit;" vertex="1" parent="URqqC22e3I-ldUmz-aZF-20">
          <mxGeometry y="88" width="330" height="8" as="geometry" />
        </mxCell>
        <mxCell id="URqqC22e3I-ldUmz-aZF-23" value="+__init__(x: int, y: int, raio: int)&lt;br/&gt;    +colorCircle(): str&lt;br/&gt;    +circunferenciaCircle(): float&lt;br/&gt;    +diametroCircle(): int&lt;br/&gt;    +areaCircle(): float&lt;br/&gt;    +showCircle(color: str, circunf: float, diametro: int, area: float)&lt;br/&gt;    +identif(): str" style="text;strokeColor=none;fillColor=none;align=left;verticalAlign=top;spacingLeft=4;spacingRight=4;overflow=hidden;rotatable=0;points=[[0,0.5],[1,0.5]];portConstraint=eastwest;whiteSpace=wrap;html=1;" vertex="1" parent="URqqC22e3I-ldUmz-aZF-20">
          <mxGeometry y="96" width="330" height="146" as="geometry" />
        </mxCell>
        <mxCell id="URqqC22e3I-ldUmz-aZF-26" value="Square" style="swimlane;fontStyle=1;align=center;verticalAlign=top;childLayout=stackLayout;horizontal=1;startSize=26;horizontalStack=0;resizeParent=1;resizeParentMax=0;resizeLast=0;collapsible=1;marginBottom=0;whiteSpace=wrap;html=1;" vertex="1" parent="1">
          <mxGeometry x="88" y="451" width="319" height="198" as="geometry" />
        </mxCell>
        <mxCell id="URqqC22e3I-ldUmz-aZF-27" value="-__lado: int" style="text;strokeColor=none;fillColor=none;align=left;verticalAlign=top;spacingLeft=4;spacingRight=4;overflow=hidden;rotatable=0;points=[[0,0.5],[1,0.5]];portConstraint=eastwest;whiteSpace=wrap;html=1;" vertex="1" parent="URqqC22e3I-ldUmz-aZF-26">
          <mxGeometry y="26" width="319" height="29" as="geometry" />
        </mxCell>
        <mxCell id="URqqC22e3I-ldUmz-aZF-28" value="" style="line;strokeWidth=1;fillColor=none;align=left;verticalAlign=middle;spacingTop=-1;spacingLeft=3;spacingRight=3;rotatable=0;labelPosition=right;points=[];portConstraint=eastwest;strokeColor=inherit;" vertex="1" parent="URqqC22e3I-ldUmz-aZF-26">
          <mxGeometry y="55" width="319" height="8" as="geometry" />
        </mxCell>
        <mxCell id="URqqC22e3I-ldUmz-aZF-29" value="- __init__(__lado: int)&lt;br&gt;    + colorSquare(): str&lt;br&gt;&amp;nbsp;# _validaLado(lado: int): int&lt;br&gt;    + areaSquare(): int&lt;br&gt;    + perimetroSquare(): int&lt;br&gt;    + showSquare(lado: int, color: str, area: int, perimetro: int)&lt;br&gt;    + identif(): str" style="text;strokeColor=none;fillColor=none;align=left;verticalAlign=top;spacingLeft=4;spacingRight=4;overflow=hidden;rotatable=0;points=[[0,0.5],[1,0.5]];portConstraint=eastwest;whiteSpace=wrap;html=1;" vertex="1" parent="URqqC22e3I-ldUmz-aZF-26">
          <mxGeometry y="63" width="319" height="135" as="geometry" />
        </mxCell>
      </root>
    </mxGraphModel>
  </diagram>
</mxfile>
